:SAMPLES-PER-SECOND 30
:FRAME-RANGE 1-1770
:FULLY-SPECIFIED
:DEGREES
277
root  39.1827 39.3782 -9.35201 -176.889 -33.6114 176.704
RightUpLeg  3.88917 -8.22821 -0.836189
RightLeg  10.8273 -17.9984 0.824487
RightFoot  -18.8471 0.329411 6.96461
RightToes  6.35937e-011 1.2921e-014 -6.02303e-014
Spine  6.70437 3.17995 9.34712
Spine1  -0.669056 4.98456 -6.72986
HEad  8.3679 24.9226 -6.28512
LeftShoulder1  0.776061 1.5268 -33.1706
LeftArm  3.92621 17.1393 -31.6598
LeftForeArm  5.75617 -12.1885 -12.9041
LeftHand  -0.0980482 0.370854 2.24514
RightShoulder  11.9922 15.2837 55.6772
RightArm  10.7181 5.70504 16.3132
RightForeArm  13.6973 3.43917 16.4707
RightHand  -0.153157 3.17738 -2.3107
LeftUpLeg  -20.9118 13.6676 -4.02136
LeftLeg  25.255 3.71549 2.23927
LeftFoot  -6.7661 0.375217 -8.36873
LeftToes  3.18074e-010 1.39432e-010 -7.71186e-011
278
root  39.3496 39.3642 -10.4038 -176.72 -30.6497 176.264
RightUpLeg  6.24144 -7.64886 -0.566689
RightLeg  8.25823 -15.5703 1.6241
RightFoot  -18.8651 0.270198 6.05088
RightToes  6.35937e-011 1.2921e-014 -6.02303e-014
Spine  6.84349 3.38175 8.87944
Spine1  -0.380914 5.14284 -6.716
HEad  8.12012 23.1527 -6.3792
LeftShoulder1  0.805763 1.43285 -32.828
LeftArm  7.00818 14.4905 -31.7996
LeftForeArm  3.97507 -15.4277 -10.6682
LeftHand  -0.118381 0.143872 2.62779
RightShoulder  13.2017 16.52 57.3795
RightArm  18.8917 6.68024 18.605
RightForeArm  10.7476 7.80761 15.4182
RightHand  -0.149763 3.44977 -2.21373
LeftUpLeg  -21.9798 14.5987 -8.21923
LeftLeg  21.0302 3.54957 1.8311
LeftFoot  -6.36768 0.423704 -8.86606
LeftToes  3.18074e-010 1.39432e-010 -7.71186e-011
279
root  39.5162 39.2565 -11.5167 -176.854 -27.7132 176.422
RightUpLeg  8.52891 -6.52374 0.521137
RightLeg  6.1279 -14.2486 1.70981
RightFoot  -18.972 0.224901 5.2983
RightToes  6.35937e-011 1.2921e-014 -6.02303e-014
Spine  6.94857 3.57852 8.39111
Spine1  0.0356187 5.26523 -6.37081
HEad  7.38582 21.2271 -6.30325
LeftShoulder1  0.823968 1.34902 -32.1628
LeftArm  9.88167 12.324 -31.2693
LeftForeArm  1.56247 -18.6141 -8.06463
LeftHand  -0.12058 -0.17892 2.55559
RightShoulder  14.0316 17.3384 58.4923
RightArm  27.8145 7.08794 20.856
RightForeArm  7.70149 13.1462 12.6586
RightHand  -0.101716 4.12125 -1.51456
LeftUpLeg  -22.9801 16.4945 -11.7556
LeftLeg  16.2803 1.497 0.756775
LeftFoot  -6.15381 0.514553 -10.5241
LeftToes  3.18074e-010 1.39432e-010 -7.71186e-011
280
root  39.6271 39.0872 -12.6921 -176.854 -24.8512 176.745
RightUpLeg  10.7828 -5.69586 1.49405
RightLeg  4.19133 -12.4356 1.8934
RightFoot  -19.1621 0.14904 4.07879
RightToes  6.35937e-011 1.2921e-014 -6.02303e-014
Spine  6.65918 3.73079 7.94607
Spine1  0.612959 5.34784 -6.0555
HEad  6.51063 19.4123 -6.0653
LeftShoulder1  0.85281 1.24231 -31.6351
LeftArm  11.6147 10.6274 -29.633
LeftForeArm  -0.782008 -21.414 -5.88642
LeftHand  -0.12159 -0.289887 2.53796
RightShoulder  14.5831 17.8906 59.1565
RightArm  36.5905 7.06408 22.5442
RightForeArm  4.40767 18.151 8.64908
RightHand  -0.0952022 4.55247 -1.39972
LeftUpLeg  -22.873 10.6053 -11.1945
LeftLeg  11.009 8.00442 -1.34659
LeftFoot  -5.80812 0.619279 -12.062
LeftToes  3.18074e-010 1.39432e-010 -7.71186e-011
281
root  39.7106 38.8561 -13.9548 -177.085 -21.9019 177.243
RightUpLeg  13.2658 -5.11059 2.42349
RightLeg  2.68166 -10.6747 2.0022
RightFoot  -19.3895 0.103315 3.33516
RightToes  6.35937e-011 1.2921e-014 -6.02303e-014
Spine  6.62437 3.88978 7.57869
Spine1  1.07239 5.5039 -5.92287
HEad  5.62863 17.9485 -5.61231
LeftShoulder1  0.856864 1.19945 -31.108
LeftArm  10.834 9.07905 -27.3296
LeftForeArm  -0.438472 -23.1227 -5.09326
LeftHand  -0.137647 -0.23823 2.88976
RightShoulder  14.7714 18.1807 59.1201
RightArm  42.0752 6.73183 23.6016
RightForeArm  3.95959 22.5159 5.06495
RightHand  -0.108184 4.38475 -1.56718
LeftUpLeg  -22.6975 3.11776 -9.02845
LeftLeg  6.1047 17.9601 -3.68797
LeftFoot  -5.10493 0.717044 -12.5627
LeftToes  3.18074e-010 1.39432e-010 -7.71186e-011
282
root  39.7841 38.577 -15.3107 -177.209 -18.9521 178.049
RightUpLeg  15.0613 -4.73747 3.38144
RightLeg  2.75436 -8.48771 2.04735
RightFoot  -20.0222 0.0734232 2.75383
RightToes  6.35937e-011 1.2921e-014 -6.02303e-014
Spine  6.47751 3.96694 7.43599
Spine1  1.23685 5.63457 -6.14109
HEad  4.82699 17.0626 -4.63507
LeftShoulder1  0.817527 1.26254 -30.3925
LeftArm  9.09237 7.97153 -24.6657
LeftForeArm  1.16276 -23.9953 -5.06906
LeftHand  -0.146811 -0.428503 2.9985
RightShoulder  14.7086 18.2871 58.6256
RightArm  40.8469 6.40144 23.9129
RightForeArm  8.47389 26.0489 5.14624
RightHand  -0.0806438 4.44163 -1.23674
LeftUpLeg  -23.132 -0.129808 -8.11021
LeftLeg  3.15981 22.9769 -4.76302
LeftFoot  -4.44328 0.79553 -12.7177
LeftToes  3.18074e-010 1.39432e-010 -7.71186e-011
283
root  39.8254 38.3076 -16.7938 -177.415 -15.9141 178.556
RightUpLeg  16.7486 -4.97097 3.3686
RightLeg  4.25668 -5.04154 2.18934
RightFoot  -20.64 0.0774573 2.67129
RightToes  6.35937e-011 1.2921e-014 -6.02303e-014
Spine  6.24219 4.06159 6.76652
Spine1  1.54657 5.78979 -6.38178
HEad  4.11852 16.8747 -3.60452
LeftShoulder1  0.796168 1.28246 -29.7497
LeftArm  8.19869 7.15475 -21.8111
LeftForeArm  1.28929 -24.2313 -5.11464
LeftHand  -0.143401 -0.418256 2.89378
RightShoulder  14.5579 18.4128 57.7633
RightArm  41.1121 6.03805 24.071
RightForeArm  9.58078 28.2841 5.60053
RightHand  -0.0298226 4.46713 -0.637064
LeftUpLeg  -23.6851 -0.580746 -8.49633
LeftLeg  3.80615 21.4411 -4.40203
LeftFoot  -2.56184 0.717318 -9.13138
LeftToes  3.18074e-010 1.39432e-010 -7.71186e-011
284
root  39.835 38.0612 -18.3777 -177.875 -12.9549 178.664
RightUpLeg  18.3964 -5.95618 2.15253
RightLeg  7.22917 -0.100517 2.60408
RightFoot  -21.0672 0.173016 3.71078
RightToes  6.35937e-011 1.2921e-014 -6.02303e-014
Spine  6.29695 4.07997 5.49013
Spine1  1.8093 5.88009 -6.71189
HEad  3.42217 17.1255 -2.40352
LeftShoulder1  0.768622 1.33143 -29.2814
LeftArm  8.42203 6.46773 -19.0374
LeftForeArm  0.345734 -23.7638 -5.0603
LeftHand  -0.139132 -0.387875 2.86002
RightShoulder  14.4077 18.5291 56.9271
RightArm  42.8837 5.53603 23.9933
RightForeArm  8.30593 28.8567 5.80637
RightHand  -0.000124772 4.43929 -0.286597
LeftUpLeg  -24.4041 0.188872 -10.0959
LeftLeg  7.78071 16.5842 -2.07214
LeftFoot  2.97176 -0.765819 5.94993
LeftToes  3.18074e-010 1.39432e-010 -7.71186e-011
285
root  39.8875 37.8809 -19.9861 -178.443 -11.0473 177.881
RightUpLeg  18.6513 -11.3864 -1.92265
RightLeg  14.518 9.53978 3.84768
RightFoot  -20.5246 0.327106 5.80241
RightToes  6.35937e-011 1.2921e-014 -6.02303e-014
Spine  7.07319 3.89055 2.39469
Spine1  1.40585 5.33674 -5.97172
HEad  2.53061 17.4438 -1.425
LeftShoulder1  0.816628 1.21362 -29.564
LeftArm  8.74216 5.21453 -16.4835
LeftForeArm  -0.612022 -22.5368 -5.26552
LeftHand  -0.145734 -0.212862 3.06913
RightShoulder  14.1924 18.4159 56.4031
RightArm  47.0026 5.60405 23.6365
RightForeArm  4.69355 26.9235 5.54836
RightHand  -0.00457196 4.42131 -0.338552
LeftUpLeg  -26.049 5.08434 -13.6899
LeftLeg  16.1246 12.0623 3.57357
LeftFoot  2.77646 -1.27577 10.1374
LeftToes  3.18074e-010 1.39432e-010 -7.71186e-011
286
root  39.8235 37.8676 -21.4918 -178.78 -10.2272 177.346
RightUpLeg  15.6606 -13.2208 -4.81224
RightLeg  26.161 15.34 7.8496
RightFoot  -15.5677 0.309981 11.2394
RightToes  6.35937e-011 1.2921e-014 -6.02303e-014
Spine  7.35059 3.50534 0.848342
Spine1  1.51569 4.87888 -6.14075
HEad  2.28288 16.8563 -0.691016
LeftShoulder1  1.00725 0.70463 -29.9028
LeftArm  5.88159 2.66356 -15.5948
LeftForeArm  1.49712 -19.2365 -7.46358
LeftHand  -0.124611 -0.0396101 2.69311
RightShoulder  13.8541 18.239 55.5598
RightArm  52.2392 5.74655 23.166
RightForeArm  -0.878583 22.0631 5.66101
RightHand  -0.0150132 4.66395 -0.46599
LeftUpLeg  -25.6938 5.87342 -13.8818
LeftLeg  20.9496 11.7703 5.25565
LeftFoot  0.308047 -1.01236 9.87883
LeftToes  3.18074e-010 1.39432e-010 -7.71186e-011
287
root  39.7484 37.9649 -22.7575 -178.692 -8.33365 176.562
RightUpLeg  8.38903 -8.19902 -5.64261
RightLeg  40.2478 14.2015 12.3107
RightFoot  -6.18572 -0.979593 20.6062
RightToes  6.35937e-011 1.2921e-014 -6.02303e-014
Spine  7.59396 3.687 -0.676684
Spine1  1.92798 5.05574 -7.19546
HEad  3.45785 16.2051 -0.25623
LeftShoulder1  1.08332 0.489218 -29.8576
LeftArm  0.570421 -0.148307 -16.508
LeftForeArm  5.61147 -15.5572 -10.2268
LeftHand  -0.0757905 -0.240424 1.60299
RightShoulder  13.8958 18.6479 54.7371
RightArm  39.7216 6.44786 21.5802
RightForeArm  8.91576 13.207 13.216
RightHand  0.0144395 4.55095 -0.120496
LeftUpLeg  -24.6714 7.54578 -14.2189
LeftLeg  22.8642 11.9596 5.81371
LeftFoot  -2.11905 -0.821681 10.3163
LeftToes  3.18074e-010 1.39432e-010 -7.71186e-011
288
root  39.6889 37.8979 -23.9218 -178.372 -7.02988 175.339
RightUpLeg  -0.302887 -3.81873 -7.17996
RightLeg  53.1189 11.454 15.5621
RightFoot  6.79059 -4.24566 26.4659
RightToes  6.35937e-011 1.2921e-014 -6.02303e-014
Spine  7.65756 3.50338 -3.33483
Spine1  2.38386 4.52043 -7.6914
HEad  4.75627 16.818 -0.635532
LeftShoulder1  1.09635 0.480313 -30.187
LeftArm  -0.375805 -2.4766 -18.0586
LeftForeArm  5.91082 -14.0035 -11.4031
LeftHand  -0.029623 -0.495026 0.642238
RightShoulder  14.1867 19.2958 54.3067
RightArm  25.2524 7.72199 19.1891
RightForeArm  17.243 1.79307 17.9926
RightHand  0.0672367 4.1726 0.540272
LeftUpLeg  -24.2972 9.56332 -15.1638
LeftLeg  25.4554 11.0452 6.03069
LeftFoot  -5.19791 -0.457769 9.09485
LeftToes  3.18074e-010 1.39432e-010 -7.71186e-011
289
root  39.5677 38.0135 -25.2089 -178.886 -7.45276 174.962
RightUpLeg  -6.42667 -2.24701 -8.30815
RightLeg  61.5897 7.12995 13.5522
RightFoot  7.47556 -4.07127 24.5376
RightToes  6.35937e-011 1.2921e-014 -6.02303e-014
Spine  8.34402 2.80924 -5.07221
Spine1  2.38529 3.31754 -6.97894
HEad  5.42446 17.8334 -1.47263
LeftShoulder1  1.22452 0.221785 -31.2495
LeftArm  4.33219 -5.3012 -20.0827
LeftForeArm  4.81263 -13.7482 -11.9801
LeftHand  -0.0335234 -0.501894 0.719651
RightShoulder  13.7283 18.9528 53.3951
RightArm  15.7921 8.51696 16.606
RightForeArm  21.0631 -2.78492 18.1867
RightHand  0.088476 3.45429 0.914627
LeftUpLeg  -21.7358 9.91909 -14.993
LeftLeg  26.3484 10.4196 5.90404
LeftFoot  -7.73558 -0.197237 7.73578
LeftToes  3.18074e-010 1.39432e-010 -7.71186e-011
290
root  39.3902 38.28 -26.6084 -179.619 -8.88502 175.544
RightUpLeg  -11.4402 -1.6406 -8.53377
RightLeg  65.644 3.71711 8.34965
RightFoot  4.38764 -2.84082 20.5819
RightToes  6.35937e-011 1.2921e-014 -6.02303e-014
Spine  8.86795 2.04441 -5.36828
Spine1  2.25173 2.20761 -6.06637
HEad  5.84827 18.2047 -1.78858
LeftShoulder1  1.40512 -0.200099 -31.884
LeftArm  8.45037 -9.11306 -23.7484
LeftForeArm  6.81461 -12.5111 -13.0456
LeftHand  -0.0416451 -0.810661 0.867879
RightShoulder  12.5076 17.4983 52.0728
RightArm  4.69518 7.88134 13.5368
RightForeArm  25.0673 -5.0203 17.2199
RightHand  0.0909022 2.77218 1.07918
LeftUpLeg  -17.9691 8.5046 -13.6097
LeftLeg  25.831 10.8086 5.5582
LeftFoot  -9.57194 -0.0508102 7.01591
LeftToes  3.18074e-010 1.39432e-010 -7.71186e-011
291
root  39.2163 38.5865 -28.0405 -179.856 -10.5522 176.427
RightUpLeg  -16.4631 -1.55642 -8.37127
RightLeg  65.9262 1.07199 2.00996
RightFoot  4.01477 -1.98116 14.825
RightToes  6.35937e-011 1.2921e-014 -6.02303e-014
Spine  8.85365 1.38443 -5.35908
Spine1  1.69205 1.32165 -4.86491
HEad  6.34439 18.1709 -1.68207
LeftShoulder1  1.54464 -0.526861 -32.2747
LeftArm  16.0892 -12.7731 -28.6768
LeftForeArm  5.86823 -12.8859 -13.2288
LeftHand  -0.0452181 -1.16142 0.918295
RightShoulder  10.9054 15.5266 50.1559
RightArm  0.332536 5.81983 11.435
RightForeArm  21.3808 -5.96655 16.892
RightHand  0.0453496 2.14864 0.519111
LeftUpLeg  -14.3402 7.00909 -11.8438
LeftLeg  24.3881 10.7568 4.51868
LeftFoot  -11.0004 0.0471074 6.4219
LeftToes  3.18074e-010 1.39432e-010 -7.71186e-011
